<?xml version="1.0" standalone="no"?>
<!DOCTYPE svg PUBLIC "-//W3C//DTD SVG 20010904//EN"
 "http://www.w3.org/TR/2001/REC-SVG-20010904/DTD/svg10.dtd">
<svg version="1.0" xmlns="http://www.w3.org/2000/svg"
 width="256.000000pt" height="256.000000pt" viewBox="0 0 256.000000 256.000000"
 preserveAspectRatio="xMidYMid meet">
<metadata>
Created by potrace 1.14, written by Peter Selinger 2001-2017
</metadata>
<g transform="translate(0.000000,256.000000) scale(0.100000,-0.100000)"
fill="#000000" stroke="none">
<path d="M1204 2293 c-43 -8 -89 -20 -101 -28 -46 -30 -38 -96 13 -116 14 -5
29 -7 33 -5 42 26 228 29 321 5 315 -80 619 -394 684 -705 16 -78 18 -211 4
-277 -11 -54 0 -83 39 -98 35 -13 75 8 85 46 28 101 27 295 -2 371 -5 13 -7
24 -5 24 10 0 -56 164 -89 224 -68 122 -195 270 -296 345 -19 14 -37 28 -40
32 -12 14 -100 69 -150 94 -170 86 -334 115 -496 88z"/>
<path d="M555 2102 c-71 -25 -129 -65 -206 -141 -52 -51 -70 -77 -79 -111 -39
-146 17 -351 162 -598 216 -366 536 -676 888 -861 228 -118 432 -162 548 -116
58 24 172 147 214 233 29 59 33 76 33 147 0 75 -3 85 -35 139 -70 116 -222
216 -342 224 -85 6 -148 -22 -235 -101 -33 -32 -66 -57 -72 -57 -103 0 -571
469 -571 573 0 7 18 31 41 52 156 151 159 306 10 490 -105 130 -225 173 -356
127z m171 -135 c41 -21 106 -97 139 -164 41 -79 31 -124 -43 -206 -31 -34 -60
-64 -63 -67 -17 -14 -31 -57 -31 -96 0 -84 61 -184 214 -349 200 -216 380
-351 474 -356 70 -4 82 1 159 71 79 72 134 98 178 84 54 -17 123 -59 168 -104
99 -99 85 -191 -49 -334 -29 -31 -54 -47 -78 -52 -139 -26 -413 88 -664 275
-396 295 -732 786 -734 1074 l-1 78 50 47 c119 113 199 142 281 99z"/>
<path d="M1324 1956 c-30 -22 -36 -61 -13 -90 14 -18 34 -26 71 -31 213 -29
388 -185 443 -395 17 -66 23 -89 24 -102 2 -18 43 -48 66 -48 13 0 34 10 45
23 18 18 20 30 15 72 -23 191 -134 370 -297 478 -121 80 -306 128 -354 93z"/>
</g>
</svg>
